<svg width="84" height="85" viewBox="0 0 84 85" fill="none" xmlns="http://www.w3.org/2000/svg">
<path fill-rule="evenodd" clip-rule="evenodd" d="M41.0532 8C22.2754 8 7 23.4945 7 42.608V73.5183C7 75.4412 8.53141 77 10.4205 77H41.1061C59.8251 77 75 61.5539 75 42.5C75 23.4462 59.7721 8 41.0532 8ZM59.5397 49.8356C63.554 49.8356 66.8083 46.5231 66.8083 42.437C66.8083 38.3509 63.554 35.0385 59.5397 35.0385C55.5254 35.0385 52.2712 38.3509 52.2712 42.437C52.2712 46.5231 55.5254 49.8356 59.5397 49.8356ZM37.9667 49.836C41.9812 49.836 45.2353 46.5236 45.2353 42.4375C45.2353 38.3514 41.9812 35.0389 37.9667 35.0389C33.9526 35.0389 30.6984 38.3514 30.6984 42.4375C30.6984 46.5236 33.9526 49.836 37.9667 49.836Z" fill="white"/>
</svg>
