<svg width="486" height="85" viewBox="0 0 486 85" fill="none" xmlns="http://www.w3.org/2000/svg">
<path fill-rule="evenodd" clip-rule="evenodd" d="M41.0532 8C22.2754 8 7 23.4945 7 42.608V73.5183C7 75.4412 8.53141 77 10.4205 77H41.1061C59.8251 77 75 61.5539 75 42.5C75 23.4462 59.7721 8 41.0532 8ZM59.5397 49.8356C63.554 49.8356 66.8083 46.5231 66.8083 42.437C66.8083 38.3509 63.554 35.0385 59.5397 35.0385C55.5254 35.0385 52.2712 38.3509 52.2712 42.437C52.2712 46.5231 55.5254 49.8356 59.5397 49.8356ZM37.9667 49.836C41.9812 49.836 45.2353 46.5236 45.2353 42.4375C45.2353 38.3514 41.9812 35.0389 37.9667 35.0389C33.9526 35.0389 30.6984 38.3514 30.6984 42.4375C30.6984 46.5236 33.9526 49.836 37.9667 49.836Z" fill="white"/>
<path d="M114.912 76.96C109.792 76.96 105.888 75.52 103.2 72.64C100.512 69.696 99.168 65.504 99.168 60.064V24.736C99.168 19.296 100.512 15.136 103.2 12.256C105.888 9.312 109.792 7.84 114.912 7.84C120.032 7.84 123.936 9.312 126.624 12.256C129.312 15.136 130.656 19.296 130.656 24.736V30.496H120.672V24.064C120.672 19.648 118.848 17.44 115.2 17.44C111.552 17.44 109.728 19.648 109.728 24.064V60.832C109.728 65.184 111.552 67.36 115.2 67.36C118.848 67.36 120.672 65.184 120.672 60.832V47.68H115.392V38.08H130.656V60.064C130.656 65.504 129.312 69.696 126.624 72.64C123.936 75.52 120.032 76.96 114.912 76.96ZM135.036 8.8H145.596V36.16H156.924V8.8H167.484V76H156.924V45.76H145.596V76H135.036V8.8ZM188.212 76.96C183.028 76.96 179.06 75.488 176.308 72.544C173.556 69.6 172.18 65.44 172.18 60.064V24.736C172.18 19.36 173.556 15.2 176.308 12.256C179.06 9.312 183.028 7.84 188.212 7.84C193.396 7.84 197.364 9.312 200.116 12.256C202.868 15.2 204.244 19.36 204.244 24.736V60.064C204.244 65.44 202.868 69.6 200.116 72.544C197.364 75.488 193.396 76.96 188.212 76.96ZM188.212 67.36C191.86 67.36 193.684 65.152 193.684 60.736V24.064C193.684 19.648 191.86 17.44 188.212 17.44C184.564 17.44 182.74 19.648 182.74 24.064V60.736C182.74 65.152 184.564 67.36 188.212 67.36ZM222.714 76.96C217.594 76.96 213.722 75.52 211.098 72.64C208.474 69.696 207.162 65.504 207.162 60.064V56.224H217.146V60.832C217.146 65.184 218.97 67.36 222.618 67.36C224.41 67.36 225.754 66.848 226.65 65.824C227.61 64.736 228.09 63.008 228.09 60.64C228.09 57.824 227.45 55.36 226.17 53.248C224.89 51.072 222.522 48.48 219.066 45.472C214.714 41.632 211.674 38.176 209.946 35.104C208.218 31.968 207.354 28.448 207.354 24.544C207.354 19.232 208.698 15.136 211.386 12.256C214.074 9.312 217.978 7.84 223.098 7.84C228.154 7.84 231.962 9.312 234.522 12.256C237.146 15.136 238.458 19.296 238.458 24.736V27.52H228.474V24.064C228.474 21.76 228.026 20.096 227.13 19.072C226.234 17.984 224.922 17.44 223.194 17.44C219.674 17.44 217.914 19.584 217.914 23.872C217.914 26.304 218.554 28.576 219.834 30.688C221.178 32.8 223.578 35.36 227.034 38.368C231.45 42.208 234.49 45.696 236.154 48.832C237.818 51.968 238.65 55.648 238.65 59.872C238.65 65.376 237.274 69.6 234.522 72.544C231.834 75.488 227.898 76.96 222.714 76.96ZM250.561 18.4H239.521V8.8H272.161V18.4H261.121V76H250.561V18.4ZM287.849 8.8H303.977C309.225 8.8 313.161 10.208 315.785 13.024C318.409 15.84 319.721 19.968 319.721 25.408V59.392C319.721 64.832 318.409 68.96 315.785 71.776C313.161 74.592 309.225 76 303.977 76H287.849V8.8ZM303.785 66.4C305.513 66.4 306.825 65.888 307.721 64.864C308.681 63.84 309.161 62.176 309.161 59.872V24.928C309.161 22.624 308.681 20.96 307.721 19.936C306.825 18.912 305.513 18.4 303.785 18.4H298.409V66.4H303.785ZM324.448 8.8H335.008V76H324.448V8.8ZM355.493 76.96C350.373 76.96 346.469 75.52 343.781 72.64C341.093 69.696 339.749 65.504 339.749 60.064V24.736C339.749 19.296 341.093 15.136 343.781 12.256C346.469 9.312 350.373 7.84 355.493 7.84C360.613 7.84 364.517 9.312 367.205 12.256C369.893 15.136 371.237 19.296 371.237 24.736V30.496H361.253V24.064C361.253 19.648 359.429 17.44 355.781 17.44C352.133 17.44 350.309 19.648 350.309 24.064V60.832C350.309 65.184 352.133 67.36 355.781 67.36C359.429 67.36 361.253 65.184 361.253 60.832V47.68H355.973V38.08H371.237V60.064C371.237 65.504 369.893 69.696 367.205 72.64C364.517 75.52 360.613 76.96 355.493 76.96ZM375.617 8.8H386.177V76H375.617V8.8ZM399.942 18.4H388.902V8.8H421.542V18.4H410.502V76H399.942V18.4ZM428.009 8.8H442.313L453.257 76H442.697L440.777 62.656V62.848H428.777L426.857 76H417.065L428.009 8.8ZM439.529 53.728L434.825 20.512H434.633L430.025 53.728H439.529ZM455.98 8.8H466.54V66.4H483.916V76H455.98V8.8Z" fill="white"/>
</svg>
